# Blender v2.92.0 OBJ File: ''
# www.blender.org
o Cube_Cube.001
v -1.000000 -0.541196 1.306563
v -1.000000 1.306563 0.541196
v -1.000000 -1.306563 -0.541196
v -1.000000 0.541196 -1.306563
v 1.000000 -1.306563 0.541196
v 1.000000 0.541196 1.306563
v 1.000000 -0.541196 -1.306563
v 1.000000 1.306563 -0.541196
vt 0.625000 0.000000
vt 0.375000 0.250000
vt 0.375000 0.000000
vt 0.625000 0.250000
vt 0.375000 0.500000
vt 0.625000 0.500000
vt 0.375000 0.750000
vt 0.625000 0.750000
vt 0.375000 1.000000
vt 0.125000 0.750000
vt 0.125000 0.500000
vt 0.875000 0.500000
vt 0.625000 1.000000
vt 0.875000 0.750000
vn -1.0000 0.0000 0.0000
vn -0.2028 -0.3747 -0.9047
vn 1.0000 0.0000 0.0000
vn 0.2028 -0.3747 0.9047
vn 0.4472 -0.8263 0.3423
vn -0.4472 0.8263 0.3423
vn 0.2028 0.3747 -0.9047
vn -0.2028 0.3747 0.9047
vn -0.4472 -0.8263 -0.3423
vn 0.4472 0.8263 -0.3423
s off
f 2/1/1 3/2/1 1/3/1
f 4/4/2 7/5/2 3/2/2
f 8/6/3 5/7/3 7/5/3
f 6/8/4 1/9/4 5/7/4
f 7/5/5 1/10/5 3/11/5
f 4/12/6 6/8/6 8/6/6
f 2/1/1 4/4/1 3/2/1
f 4/4/7 8/6/7 7/5/7
f 8/6/3 6/8/3 5/7/3
f 6/8/8 2/13/8 1/9/8
f 7/5/9 5/7/9 1/10/9
f 4/12/10 2/14/10 6/8/10
